<?xml version="1.0" encoding="utf-8"?>
<svg xmlns="http://www.w3.org/2000/svg"
	xmlns:xlink="http://www.w3.org/1999/xlink"
	width="5px" height="7px" viewBox="0 0 5 7">
<path fillRule="evenodd" d="M 4.82 3.96C 4.82 3.96 1.93 6.84 1.93 6.84 1.7 7.07 1.33 7.07 1.09 6.84 0.86 6.61 0.86 6.23 1.09 6 1.09 6 3.59 3.5 3.59 3.5 3.59 3.5 1.09 1 1.09 1 0.86 0.77 0.86 0.4 1.09 0.17 1.33-0.07 1.7-0.07 1.93 0.17 1.93 0.17 4.82 3.05 4.82 3.05 4.94 3.18 5 3.34 4.99 3.5 5 3.67 4.94 3.83 4.82 3.96Z" fill="rgb(166,166,166)"/></svg>