<?xml version="1.0" encoding="utf-8"?>
<svg xmlns="http://www.w3.org/2000/svg"
	xmlns:xlink="http://www.w3.org/1999/xlink"
	width="18px" height="19px" viewBox="0 0 18 19">
<path fillRule="evenodd" d="M 16.78 17.5C 16.78 17.5 16.02 18.15 16.02 18.15 15.6 18.52 14.97 18.47 14.61 18.05 14.61 18.05 11.15 14.07 11.15 14.07 10.08 14.67 8.84 15.02 7.52 15.02 3.37 15.02 0.02 11.66 0.02 7.52 0.02 3.37 3.37 0.02 7.52 0.02 11.66 0.02 15.02 3.37 15.02 7.52 15.02 9.25 14.42 10.85 13.43 12.12 13.43 12.12 16.88 16.09 16.88 16.09 17.24 16.51 17.19 17.14 16.78 17.5ZM 7.5 1.98C 4.45 1.98 1.98 4.45 1.98 7.5 1.98 10.55 4.45 13.02 7.5 13.02 10.55 13.02 13.02 10.55 13.02 7.5 13.02 4.45 10.55 1.98 7.5 1.98Z" fill="rgb(217,67,69)"/></svg>